<svg width="79" height="134" viewBox="0 0 79 134" fill="none" xmlns="http://www.w3.org/2000/svg">
<path d="M20 21V51H0L20 21Z" fill="#FDB813"/>
<path d="M20 21V51H0L20 21Z" fill="#FDB813"/>
<path d="M13 75L13 45H33L13 75Z" fill="#FDB813"/>
<path d="M13 75L13 45H33L13 75Z" fill="#FDB813"/>
<path d="M37 80V110H17L37 80Z" fill="#FDB813"/>
<path d="M37 80V110H17L37 80Z" fill="#FDB813"/>
<path d="M30 134L30 104H50L30 134Z" fill="#FDB813"/>
<path d="M30 134L30 104H50L30 134Z" fill="#FDB813"/>
<path d="M66 0V30H46L66 0Z" fill="#FDB813"/>
<path d="M66 0V30H46L66 0Z" fill="#FDB813"/>
<path d="M59 54V24L79 24L59 54Z" fill="#FDB813"/>
<path d="M59 54V24L79 24L59 54Z" fill="#FDB813"/>
</svg>
