<svg width="65" height="64" viewBox="0 0 65 64" fill="none" xmlns="http://www.w3.org/2000/svg">
<path d="M16.6434 38.2704L22.8176 35.0648" stroke="#13629A" stroke-linecap="round"/>
<path d="M20.6694 33.1022L19.1131 36.9881L23.3194 37.8822" stroke="#13629A" stroke-linecap="round"/>
<path d="M17.0551 38.0566L15.4086 38.9115" stroke="#13629A"/>
<path d="M14.1738 39.5526L7.99951 42.7582" stroke="#13629A" stroke-linecap="round"/>
<path d="M7.49768 39.9408L11.704 40.8349L10.1476 44.7209" stroke="#13629A" stroke-linecap="round"/>
<path d="M13.7621 39.7663L15.4085 38.9115" stroke="#13629A"/>
<path d="M15.5417 37.6677L15.6276 30.8876" stroke="#13629A" stroke-linecap="round"/>
<path d="M12.8136 31.7584L15.576 34.9557L18.4185 31.8248" stroke="#13629A" stroke-linecap="round"/>
<path d="M15.5474 37.2157L15.5245 39.0237" stroke="#13629A"/>
<path d="M15.4653 40.3334L15.4098 47.1138" stroke="#13629A" stroke-linecap="round"/>
<path d="M12.6146 46.1882L15.4431 43.0455L18.2198 46.2312" stroke="#13629A" stroke-linecap="round"/>
<path d="M15.4617 40.7854L15.4765 38.9773" stroke="#13629A"/>
<path d="M14.323 38.2641L8.43762 34.5845" stroke="#13629A" stroke-linecap="round"/>
<path d="M7.70142 37.3533L11.9688 36.7922L10.7432 32.7969" stroke="#13629A" stroke-linecap="round"/>
<path d="M13.9305 38.0188L15.5 39" stroke="#13629A"/>
<path d="M16.677 39.7359L22.5624 43.4154" stroke="#13629A" stroke-linecap="round"/>
<path d="M20.2567 45.203L19.0311 41.2077L23.2984 40.6466" stroke="#13629A" stroke-linecap="round"/>
<path d="M17.0693 39.9812L15.4999 39" stroke="#13629A"/>
<path d="M14.323 38.2641L8.43762 34.5845" stroke="#13629A" stroke-linecap="round"/>
<path d="M7.70142 37.3533L11.9688 36.7922L10.7432 32.7969" stroke="#13629A" stroke-linecap="round"/>
<path d="M13.9305 38.0188L15.5 39" stroke="#13629A"/>
<path d="M16.677 39.7359L22.5624 43.4154" stroke="#13629A" stroke-linecap="round"/>
<path d="M20.2567 45.203L19.0311 41.2077L23.2984 40.6466" stroke="#13629A" stroke-linecap="round"/>
<path d="M17.0693 39.9812L15.4999 39" stroke="#13629A"/>
<path d="M50.6434 48.2704L56.8176 45.0648" stroke="#13629A" stroke-linecap="round"/>
<path d="M54.6694 43.1022L53.1131 46.9881L57.3194 47.8822" stroke="#13629A" stroke-linecap="round"/>
<path d="M51.0551 48.0566L49.4086 48.9115" stroke="#13629A"/>
<path d="M48.1738 49.5526L41.9995 52.7582" stroke="#13629A" stroke-linecap="round"/>
<path d="M41.4977 49.9408L45.704 50.8349L44.1476 54.7209" stroke="#13629A" stroke-linecap="round"/>
<path d="M47.7621 49.7663L49.4085 48.9115" stroke="#13629A"/>
<path d="M49.5417 47.6677L49.6276 40.8876" stroke="#13629A" stroke-linecap="round"/>
<path d="M46.8136 41.7584L49.576 44.9557L52.4185 41.8248" stroke="#13629A" stroke-linecap="round"/>
<path d="M49.5474 47.2157L49.5245 49.0237" stroke="#13629A"/>
<path d="M49.4653 50.3334L49.4098 57.1138" stroke="#13629A" stroke-linecap="round"/>
<path d="M46.6146 56.1882L49.4431 53.0455L52.2198 56.2312" stroke="#13629A" stroke-linecap="round"/>
<path d="M49.4617 50.7854L49.4765 48.9773" stroke="#13629A"/>
<path d="M48.323 48.2641L42.4376 44.5845" stroke="#13629A" stroke-linecap="round"/>
<path d="M41.7014 47.3533L45.9688 46.7922L44.7432 42.7969" stroke="#13629A" stroke-linecap="round"/>
<path d="M47.9305 48.0188L49.5 49" stroke="#13629A"/>
<path d="M50.677 49.7359L56.5624 53.4154" stroke="#13629A" stroke-linecap="round"/>
<path d="M54.2567 55.203L53.0311 51.2077L57.2984 50.6466" stroke="#13629A" stroke-linecap="round"/>
<path d="M51.0693 49.9812L49.4999 49" stroke="#13629A"/>
<path d="M48.323 48.2641L42.4376 44.5845" stroke="#13629A" stroke-linecap="round"/>
<path d="M41.7014 47.3533L45.9688 46.7922L44.7432 42.7969" stroke="#13629A" stroke-linecap="round"/>
<path d="M47.9305 48.0188L49.5 49" stroke="#13629A"/>
<path d="M50.677 49.7359L56.5624 53.4154" stroke="#13629A" stroke-linecap="round"/>
<path d="M54.2567 55.203L53.0311 51.2077L57.2984 50.6466" stroke="#13629A" stroke-linecap="round"/>
<path d="M51.0693 49.9812L49.4999 49" stroke="#13629A"/>
<path d="M34.6434 14.2704L40.8176 11.0648" stroke="#13629A" stroke-linecap="round"/>
<path d="M38.6694 9.10217L37.1131 12.9881L41.3194 13.8822" stroke="#13629A" stroke-linecap="round"/>
<path d="M35.0551 14.0566L33.4086 14.9115" stroke="#13629A"/>
<path d="M32.1738 15.5526L25.9995 18.7582" stroke="#13629A" stroke-linecap="round"/>
<path d="M25.4977 15.9408L29.704 16.8349L28.1476 20.7209" stroke="#13629A" stroke-linecap="round"/>
<path d="M31.7621 15.7663L33.4085 14.9115" stroke="#13629A"/>
<path d="M33.5417 13.6677L33.6276 6.88757" stroke="#13629A" stroke-linecap="round"/>
<path d="M30.8136 7.75836L33.576 10.9557L36.4185 7.82484" stroke="#13629A" stroke-linecap="round"/>
<path d="M33.5474 13.2157L33.5245 15.0237" stroke="#13629A"/>
<path d="M33.4653 16.3334L33.4098 23.1138" stroke="#13629A" stroke-linecap="round"/>
<path d="M30.6146 22.1882L33.4431 19.0455L36.2198 22.2312" stroke="#13629A" stroke-linecap="round"/>
<path d="M33.4617 16.7854L33.4765 14.9773" stroke="#13629A"/>
<path d="M32.323 14.2641L26.4376 10.5845" stroke="#13629A" stroke-linecap="round"/>
<path d="M25.7014 13.3533L29.9688 12.7922L28.7432 8.79695" stroke="#13629A" stroke-linecap="round"/>
<path d="M31.9305 14.0188L33.5 15" stroke="#13629A"/>
<path d="M34.677 15.7359L40.5624 19.4154" stroke="#13629A" stroke-linecap="round"/>
<path d="M38.2567 21.203L37.0311 17.2077L41.2984 16.6466" stroke="#13629A" stroke-linecap="round"/>
<path d="M35.0693 15.9812L33.4999 15" stroke="#13629A"/>
<path d="M32.323 14.2641L26.4376 10.5845" stroke="#13629A" stroke-linecap="round"/>
<path d="M25.7014 13.3533L29.9688 12.7922L28.7432 8.79695" stroke="#13629A" stroke-linecap="round"/>
<path d="M31.9305 14.0188L33.5 15" stroke="#13629A"/>
<path d="M34.677 15.7359L40.5624 19.4154" stroke="#13629A" stroke-linecap="round"/>
<path d="M38.2567 21.203L37.0311 17.2077L41.2984 16.6466" stroke="#13629A" stroke-linecap="round"/>
<path d="M35.0693 15.9812L33.4999 15" stroke="#13629A"/>
</svg>
