<svg width="36" height="36" viewBox="0 0 36 36" fill="none" xmlns="http://www.w3.org/2000/svg">
<circle cx="18" cy="18" r="12" fill="#0B14E0"/>
<path d="M19.2998 17.0996L26.4595 13.2585" stroke="white" stroke-linecap="round"/>
<path d="M23.9684 10.9068L22.1637 15.5632L27.0413 16.6345" stroke="white" stroke-linecap="round"/>
<path d="M19.7771 16.8436L17.8679 17.8679" stroke="white"/>
<path d="M16.4359 18.6361L9.27625 22.4772" stroke="white" stroke-linecap="round"/>
<path d="M8.69443 19.1012L13.5721 20.1726L11.7673 24.829" stroke="white" stroke-linecap="round"/>
<path d="M15.9586 18.8922L17.8679 17.8679" stroke="white"/>
<path d="M18.0223 16.3775L18.1219 8.25309" stroke="white" stroke-linecap="round"/>
<path d="M14.8588 9.29651L18.0621 13.1277L21.3583 9.37617" stroke="white" stroke-linecap="round"/>
<path d="M18.0289 15.8359L18.0024 18.0024" stroke="white"/>
<path d="M17.9338 19.5716L17.8694 27.6964" stroke="white" stroke-linecap="round"/>
<path d="M14.6281 26.5873L17.908 22.8215L21.1279 26.6388" stroke="white" stroke-linecap="round"/>
<path d="M17.9295 20.1133L17.9467 17.9467" stroke="white"/>
<path d="M16.609 17.0921L9.7843 12.6831" stroke="white" stroke-linecap="round"/>
<path d="M8.93066 16.0008L13.8791 15.3285L12.4579 10.5411" stroke="white" stroke-linecap="round"/>
<path d="M16.154 16.7982L17.9739 17.9739" stroke="white"/>
<path d="M19.3388 18.8557L26.1635 23.2647" stroke="white" stroke-linecap="round"/>
<path d="M23.49 25.4067L22.0687 20.6193L27.0172 19.947" stroke="white" stroke-linecap="round"/>
<path d="M19.7938 19.1497L17.9739 17.9739" stroke="white"/>
<path d="M16.609 17.0921L9.7843 12.6831" stroke="white" stroke-linecap="round"/>
<path d="M8.93066 16.0008L13.8791 15.3285L12.4579 10.5411" stroke="white" stroke-linecap="round"/>
<path d="M16.154 16.7982L17.9739 17.9739" stroke="white"/>
<path d="M19.3388 18.8557L26.1635 23.2647" stroke="white" stroke-linecap="round"/>
<path d="M23.49 25.4067L22.0687 20.6193L27.0172 19.947" stroke="white" stroke-linecap="round"/>
<path d="M19.7938 19.1497L17.9739 17.9739" stroke="white"/>
</svg>
