<svg width="150" height="150" viewBox="0 0 150 150" fill="none" xmlns="http://www.w3.org/2000/svg">
<circle cx="75" cy="75" r="75" fill="#FDB813"/>
<path fill-rule="evenodd" clip-rule="evenodd" d="M123.125 17.4735C98.7637 20.8573 80 41.9655 80 67.5C80 95.3904 102.386 118 130 118C132.298 118 134.561 117.843 136.777 117.54C123.248 137.149 100.625 150 75 150C33.5786 150 0 116.421 0 75C0 33.5786 33.5786 0 75 0C93.317 0 110.1 6.56635 123.125 17.4735Z" fill="#4A11ED" fill-opacity="0.86"/>
<path d="M109 13L120.5 19L136.5 110.5L130.5 123L126.5 110.5L117 123L112.5 110.5L99 115.5L102.5 99L85 102L91.5 87.5L78.5 90.5L87.5 77L72.5 74L85 64.5L72.5 60.5L87.5 52L78.5 45.5L91.5 41L85 31H102.5L99 19L112.5 23.5L109 13Z" fill="#FDB813" stroke="#FDB813"/>
</svg>
